<?xml version="1.0" encoding="utf-8"?>
<!-- Generator: Adobe Illustrator 23.0.4, SVG Export Plug-In . SVG Version: 6.00 Build 0)  -->
<svg version="1.1" id="Layer_1" xmlns="http://www.w3.org/2000/svg" xmlns:xlink="http://www.w3.org/1999/xlink" x="0px" y="0px"
	 viewBox="0 0 120 120" style="enable-background:new 0 0 120 120;" xml:space="preserve">
<style type="text/css">
	.st0{fill-rule:evenodd;clip-rule:evenodd;fill:#DBDBDB;}
</style>
<path class="st0" d="M60,6.5C29.7,6.5,5.1,31,5.1,61.4c0,24.2,15.7,44.8,37.5,52.1c2.7,0.5,3.7-1.2,3.7-2.6c0-1.3,0-4.8-0.1-9.3
	c-15.3,3.3-18.5-7.4-18.5-7.4c-2.5-6.3-6.1-8-6.1-8c-5-3.4,0.4-3.3,0.4-3.3c5.5,0.4,8.4,5.7,8.4,5.7c4.9,8.4,12.8,6,16,4.6
	c0.5-3.5,1.9-6,3.5-7.3c-12.2-1.4-25-6.1-25-27.1c0-6,2.1-10.9,5.6-14.7c-0.6-1.4-2.4-7,0.5-14.5c0,0,4.6-1.5,15.1,5.6
	C50.6,33.6,55.3,33,60,33s9.4,0.6,13.7,1.8c10.5-7.1,15.1-5.6,15.1-5.6c3,7.6,1.1,13.1,0.5,14.5c3.5,3.8,5.6,8.7,5.6,14.7
	c0,21.1-12.8,25.7-25.1,27.1c2,1.7,3.7,5,3.7,10.2c0,7.3-0.1,13.3-0.1,15.1c0,1.5,1,3.2,3.8,2.6c21.8-7.3,37.5-27.8,37.5-52.1
	C114.9,31,90.3,6.5,60,6.5z"/>
</svg>
