<?xml version="1.0" encoding="utf-8"?>
<!-- Generator: Adobe Illustrator 23.0.4, SVG Export Plug-In . SVG Version: 6.00 Build 0)  -->
<svg version="1.1" id="Layer_1" xmlns="http://www.w3.org/2000/svg" xmlns:xlink="http://www.w3.org/1999/xlink" x="0px" y="0px"
	 viewBox="0 0 841.9 595.3" style="enable-background:new 0 0 841.9 595.3;" xml:space="preserve">
<style type="text/css">
	.st0{clip-path:url(#SVGID_2_);}
	.st1{fill:#5B9B43;}
	.st2{fill:#D31F31;}
	.st3{fill:#F3F1A1;}
</style>
<g>
	<g>
		<defs>
			<circle id="SVGID_1_" cx="421" cy="297.6" r="254.7"/>
		</defs>
		<clipPath id="SVGID_2_">
			<use xlink:href="#SVGID_1_"  style="overflow:visible;"/>
		</clipPath>
		<g class="st0">
			<polyline class="st1" points="163.5,588.1 198.8,588.1 575.3,23.4 163.5,23.4 			"/>
			<polyline points="539.5,23.4 681.7,23.4 411.1,588.1 117.5,588.1 			"/>
			<polygon class="st2" points="752.3,23.4 681.7,23.4 411.1,588.1 752.3,588.1 			"/>
		</g>
	</g>
	<path d="M421,559c-144.1,0-261.4-117.3-261.4-261.4S276.8,36.3,421,36.3s261.4,117.3,261.4,261.4S565.1,559,421,559z M421,45
		c-137.1,0-248.7,115.5-248.7,252.7s111.6,250,248.7,250s252.7-112.9,252.7-250S558.1,45,421,45L421,45z"/>
	<path class="st3" d="M402.4,135.7c0,0,33.8-18.4,62.7,4.2c14.6,11.4,9.2,36.5,31.6,46.2c24.4,10.6,55.7-6.9,55.7-6.9
		s-5.7,6.7-17.6,18.9c-7.1,7.3-17.5,20.5-41.8,13.6c-22.1-6.2-20.6-29.4-29.2-48.6c-18.8-42.3-53.4-22.8-53.4-22.8
		S496.5,304.2,516.5,349c21.5,48,36.4,130.1-52.3,148.4c-90.4,18.7-134-75.6-97.5-134.3c27-43.4,84.5-38.6,103.6-26.7
		c12.7,7.9,9.5,19.5,9.5,19.5s-8.7-13.8-28.5-10.1c-40.1,7.4-39,61.3-6.3,72.5c19.2,6.6,35.5-1.8,41.8-10.2
		c20.6-27.2,5.5-60.7-11.6-107.6C449.9,231.4,402.4,135.7,402.4,135.7z"/>
	<polygon points="534.6,214.4 537.9,215.4 538,138.7 533.1,138.4 	"/>
	<polygon points="540.1,218.8 542.8,218 543.4,137.1 539.2,138.5 	"/>
</g>
</svg>
