<svg xmlns="http://www.w3.org/2000/svg" xmlns:xlink="http://www.w3.org/1999/xlink" viewBox="0 0 864 864"><defs><clipPath id="a"><circle cx="435.59244" cy="438.06154" r="254.74614" style="fill:none"/></clipPath></defs><title>Base Artboard</title><g style="clip-path:url(#a)"><polyline points="178.127 728.568 213.425 728.568 589.937 163.881 178.127 163.799" style="fill:#5b9b43"/><polyline points="554.098 163.799 696.29 163.799 425.671 728.568 132.117 728.568"/><polygon points="766.886 163.799 696.29 163.799 425.671 728.568 766.886 728.568 766.886 163.799" style="fill:#d31f31"/></g><path d="M435.5598,699.4828c-144.13039,0-261.38862-117.25823-261.38862-261.38863S291.42941,176.70555,435.5598,176.70555,696.94843,293.96378,696.94843,438.09417,579.6902,699.4828,435.5598,699.4828Zm0-514.04559c-137.14239,0-248.71523,115.51457-248.71523,252.657S298.41741,688.12332,435.5598,688.12332s252.657-112.88675,252.657-250.02915S572.7022,185.43721,435.5598,185.43721Z"/><path d="M416.97133,276.159s33.76855-18.36947,62.71934,4.22716c14.63677,11.42427,9.20585,36.49473,31.5982,46.23054,24.38205,10.60089,55.73271-6.91433,55.73271-6.91433s-5.70866,6.72644-17.5915,18.93615c-7.05992,7.25411-17.46947,20.48758-41.81206,13.64287-22.14095-6.22566-20.63438-29.3786-29.19192-48.6333-18.80577-42.31345-53.41929-22.844-53.41929-22.844S511.105,444.68493,531.13314,489.49332c21.47672,48.04938,36.406,130.06137-52.29774,148.41251-90.37737,18.69738-133.98056-75.596-97.47035-134.2924,26.99055-43.39194,84.53437-38.56626,103.5701-26.71764,12.71684,7.91547,9.45366,19.47914,9.45366,19.47914s-8.65372-13.77221-28.47315-10.08951c-40.08473,7.44826-38.95047,61.25052-6.31093,72.53333,19.23067,6.64764,35.4549-1.77234,41.80717-10.18672,20.57442-27.24768,5.508-60.73251-11.64233-107.60733C464.46826,371.87164,416.97133,276.159,416.97133,276.159Z" style="fill:#f3f1a1"/><polygon points="549.209 354.877 552.527 355.832 552.595 279.144 547.696 278.864 549.209 354.877"/><polygon points="554.709 359.224 557.39 358.442 558.031 277.497 553.781 278.954 554.709 359.224"/></svg>